<svg width="1440" height="855" viewBox="0 0 1440 855" fill="none" xmlns="http://www.w3.org/2000/svg">
<g clip-path="url(#clip0_382_1401)">
<mask id="mask0_382_1401" style="mask-type:alpha" maskUnits="userSpaceOnUse" x="-252" y="-135" width="1915" height="1073">
<g opacity="0.6">
<path d="M835.982 450.744C835.982 598.004 738.617 717.382 618.512 717.382C498.406 717.382 -252 200.884 -252 53.6245C-252 -93.6353 826.188 109.095 946.293 109.095C1066.4 109.095 835.982 303.484 835.982 450.744Z" fill="url(#paint0_linear_382_1401)"/>
<path d="M1126.27 407.095C1450.33 699.784 1300.63 552.696 1578.98 545.285C1622.64 553.697 1696.77 554.097 1643.96 488.405C1577.94 406.291 1599.22 348.293 1516.71 258.829C1434.21 169.365 1383.97 78.4709 1259.41 -63.8192C1134.86 -206.109 1125.27 -88.8154 984.854 -99.9346C844.434 -111.054 908.479 -93.3962 714.735 113.061C520.991 319.518 802.201 114.407 1126.27 407.095Z" fill="#D9D9D9"/>
</g>
</mask>
<g mask="url(#mask0_382_1401)">
<line x1="-32.7949" y1="609.543" x2="1478.78" y2="609.543" stroke="white" stroke-opacity="0.09" stroke-width="1.2607"/>
<line x1="-32.7949" y1="286.805" x2="1478.78" y2="286.805" stroke="white" stroke-opacity="0.09" stroke-width="1.2607"/>
<line x1="-32.7949" y1="448.172" x2="1478.78" y2="448.172" stroke="white" stroke-opacity="0.09" stroke-width="1.2607"/>
<line x1="-32.7949" y1="770.911" x2="1478.78" y2="770.911" stroke="white" stroke-opacity="0.09" stroke-width="1.2607"/>
<line x1="-32.7949" y1="125.438" x2="1478.78" y2="125.438" stroke="white" stroke-opacity="0.09" stroke-width="1.2607"/>
<line x1="-32.7949" y1="528.86" x2="1478.78" y2="528.86" stroke="white" stroke-opacity="0.09" stroke-width="1.2607"/>
<line x1="-32.7949" y1="851.598" x2="1478.78" y2="851.598" stroke="white" stroke-opacity="0.09" stroke-width="1.2607"/>
<line x1="-32.7949" y1="206.122" x2="1478.78" y2="206.122" stroke="white" stroke-opacity="0.09" stroke-width="1.2607"/>
<line x1="-32.7949" y1="367.489" x2="1478.78" y2="367.489" stroke="white" stroke-opacity="0.09" stroke-width="1.2607"/>
<line x1="-32.7949" y1="690.231" x2="1478.78" y2="690.231" stroke="white" stroke-opacity="0.09" stroke-width="1.2607"/>
<line x1="-32.7949" y1="44.7505" x2="1478.78" y2="44.7505" stroke="white" stroke-opacity="0.09" stroke-width="1.2607"/>
<line x1="14.48" y1="-64.2988" x2="14.4799" y2="1103.11" stroke="white" stroke-opacity="0.09" stroke-width="1.2607"/>
<line x1="659.96" y1="-64.2988" x2="659.96" y2="1103.11" stroke="white" stroke-opacity="0.09" stroke-width="1.2607"/>
<line x1="337.22" y1="-64.2988" x2="337.22" y2="1103.11" stroke="white" stroke-opacity="0.09" stroke-width="1.2607"/>
<line x1="982.697" y1="-64.2988" x2="982.697" y2="1103.11" stroke="white" stroke-opacity="0.09" stroke-width="1.2607"/>
<line x1="1305.44" y1="-64.2988" x2="1305.44" y2="1103.11" stroke="white" stroke-opacity="0.09" stroke-width="1.2607"/>
<line x1="175.851" y1="-64.2988" x2="175.851" y2="1103.11" stroke="white" stroke-opacity="0.09" stroke-width="1.2607"/>
<line x1="821.326" y1="-64.2988" x2="821.326" y2="1103.11" stroke="white" stroke-opacity="0.09" stroke-width="1.2607"/>
<line x1="498.591" y1="-64.2988" x2="498.591" y2="1103.11" stroke="white" stroke-opacity="0.09" stroke-width="1.2607"/>
<line x1="1144.07" y1="-64.2988" x2="1144.07" y2="1103.11" stroke="white" stroke-opacity="0.09" stroke-width="1.2607"/>
<line x1="95.1672" y1="-64.2988" x2="95.1672" y2="1103.11" stroke="white" stroke-opacity="0.09" stroke-width="1.2607"/>
<line x1="740.644" y1="-64.2988" x2="740.644" y2="1103.11" stroke="white" stroke-opacity="0.09" stroke-width="1.2607"/>
<line x1="417.904" y1="-64.2988" x2="417.904" y2="1103.11" stroke="white" stroke-opacity="0.09" stroke-width="1.2607"/>
<line x1="1063.38" y1="-64.2988" x2="1063.38" y2="1103.11" stroke="white" stroke-opacity="0.09" stroke-width="1.2607"/>
<line x1="1386.12" y1="-64.2988" x2="1386.12" y2="1103.11" stroke="white" stroke-opacity="0.09" stroke-width="1.2607"/>
<line x1="256.537" y1="-64.2988" x2="256.537" y2="1103.11" stroke="white" stroke-opacity="0.09" stroke-width="1.2607"/>
<line x1="902.013" y1="-64.2988" x2="902.013" y2="1103.11" stroke="white" stroke-opacity="0.09" stroke-width="1.2607"/>
<line x1="579.273" y1="-64.2988" x2="579.273" y2="1103.11" stroke="white" stroke-opacity="0.09" stroke-width="1.2607"/>
<line x1="1224.75" y1="-64.2988" x2="1224.75" y2="1103.11" stroke="white" stroke-opacity="0.09" stroke-width="1.2607"/>
<g opacity="0.7">
<rect x="1144.58" y="206.982" width="80.2262" height="79.0801" fill="white" fill-opacity="0.03"/>
<rect x="498.188" y="126.756" width="80.2262" height="79.0801" fill="white" fill-opacity="0.11"/>
<rect x="1063.21" y="287.209" width="80.2262" height="79.0801" fill="white" fill-opacity="0.04"/>
<rect x="416.816" y="206.982" width="80.2262" height="79.0801" fill="white" fill-opacity="0.03"/>
<rect x="1063.21" y="206.982" width="80.2262" height="79.0801" fill="white" fill-opacity="0.03"/>
<rect x="416.816" y="126.756" width="80.2262" height="79.0801" fill="white" fill-opacity="0.03"/>
<rect x="982.984" y="45.3848" width="80.2262" height="80.2262" fill="white" fill-opacity="0.03"/>
<rect x="902.758" y="-46.3027" width="80.2262" height="80.2262" fill="white" fill-opacity="0.03"/>
<rect x="901.881" y="44.2363" width="80.2262" height="81.3723" fill="white" fill-opacity="0.03"/>
<rect x="176.139" y="124.467" width="81.3723" height="82.5184" fill="white" fill-opacity="0.03"/>
<rect x="94.7656" y="44.2402" width="81.3723" height="80.2262" fill="white" fill-opacity="0.03"/>
<rect x="14.5391" y="45.3848" width="81.3723" height="80.2262" fill="white" fill-opacity="0.03"/>
<rect x="94.7656" y="124.467" width="81.3723" height="82.5184" fill="white" fill-opacity="0.04"/>
<rect x="417.963" y="-35.9863" width="81.3723" height="80.2262" fill="white" fill-opacity="0.03"/>
<rect x="176.139" y="286.064" width="80.2262" height="81.3723" fill="white" fill-opacity="0.03"/>
</g>
<rect width="1441" height="207" transform="matrix(1 0 0 -1 1 207)" fill="url(#paint1_linear_382_1401)"/>
</g>
</g>
<defs>
<linearGradient id="paint0_linear_382_1401" x1="267.407" y1="127.375" x2="721.889" y2="369.429" gradientUnits="userSpaceOnUse">
<stop stop-color="white"/>
<stop offset="1" stop-color="white" stop-opacity="0"/>
</linearGradient>
<linearGradient id="paint1_linear_382_1401" x1="720.5" y1="0" x2="720.5" y2="207" gradientUnits="userSpaceOnUse">
<stop stop-color="#060913" stop-opacity="0"/>
<stop offset="1" stop-color="#060913"/>
</linearGradient>
<clipPath id="clip0_382_1401">
<rect width="1440" height="855" fill="white"/>
</clipPath>
</defs>
</svg>
