<svg width="1496" height="440" viewBox="0 0 1496 440" fill="none" xmlns="http://www.w3.org/2000/svg">
<g opacity="0.1">
<path d="M60.5902 425.516C40.4759 415.924 25.15 402.879 14.5677 386.434C3.99437 369.98 -0.820597 351.741 0.113916 331.763H82.796C83.0274 344.3 88.0738 354.686 97.9708 362.904C107.85 371.149 120.8 375.253 136.838 375.253C152.466 375.253 165.006 372.139 174.485 365.857C183.937 359.584 189.17 351.545 190.212 341.739C191.324 331.165 186.794 323.224 176.594 317.932C166.413 312.641 149.912 306.868 127.127 300.586C103.507 294.706 84.3179 288.638 69.517 282.365C54.7517 276.093 42.4695 266.492 32.6972 253.553C22.916 240.624 19.1958 223.198 21.5098 201.238C23.4055 183.214 30.312 166.769 42.2649 151.868C54.1999 136.975 70.2824 125.215 90.548 116.595C110.805 107.985 134.025 103.666 160.218 103.666C198.907 103.666 228.767 113.347 249.798 132.764C270.811 152.171 280.761 178.324 279.631 211.241H201.061C201.257 198.294 196.976 188.032 188.182 180.376C179.416 172.738 167.018 168.919 150.998 168.919C136.134 168.919 124.395 171.668 115.824 177.146C107.218 182.634 102.421 190.272 101.362 200.06C100.205 211.045 104.797 219.379 115.166 225.045C125.508 230.737 141.884 236.519 164.33 242.391C187.186 248.262 205.876 254.347 220.472 260.62C235.042 266.902 247.217 276.583 256.98 289.709C266.726 302.853 270.66 320.199 268.782 341.739C266.797 360.539 259.837 377.421 247.911 392.305C235.976 407.206 219.902 418.859 199.655 427.283C179.416 435.697 156.391 439.927 130.599 439.927C104.014 439.927 80.6689 435.117 60.5902 425.516Z" fill="url(#paint0_linear_360_1223)"/>
<path d="M419.457 191.197L403.775 339.817C402.68 350.167 404.371 357.663 408.866 362.276C413.351 366.907 421.477 369.209 433.305 369.209H469.253L462.347 434.65H413.681C348.407 434.65 319.117 402.857 325.819 339.264L341.438 191.197H304.939L311.667 127.415H348.167L356.177 51.4546H434.187L426.176 127.415H494.761L488.041 191.197H419.457Z" fill="url(#paint1_linear_360_1223)"/>
<path d="M646.717 136.785C663.716 127.55 682.549 122.937 703.206 122.937L694.609 204.448H674.139C649.806 204.448 630.857 210.176 617.293 221.642C603.721 233.099 595.444 253.06 592.444 281.515L576.291 434.579H498.851L531.265 127.345H608.714L603.676 175.056C615.335 158.789 629.691 146.03 646.717 136.785Z" fill="url(#paint2_linear_360_1223)"/>
<path d="M812.812 127.544L780.398 434.779H702.958L735.372 127.544H812.812ZM745.865 77.9061C737.749 69.233 734.375 58.4184 735.746 45.4802C737.099 32.5419 742.751 21.7273 752.71 13.0186C762.651 4.34547 774.453 0 788.097 0C801.732 0 812.608 4.35439 820.76 13.0186C828.859 21.7273 832.232 32.5419 830.879 45.4802C829.518 58.4273 823.848 69.2419 813.898 77.9061C803.93 86.6149 792.146 90.9514 778.511 90.9514C764.876 90.9514 753.973 86.6149 745.865 77.9061Z" fill="url(#paint3_linear_360_1223)"/>
<path d="M861.017 197.363C875.898 173.342 894.722 154.845 917.48 141.924C940.228 128.968 964.695 122.499 990.897 122.499C1010.81 122.499 1029.34 126.854 1046.49 135.536C1063.64 144.218 1076.8 155.773 1085.98 170.174L1101.36 24.3291H1179.91L1136.6 434.712H1058.07L1062.86 389.232C1051.65 404.41 1036.91 416.59 1018.61 425.834C1000.3 435.087 979.727 439.7 956.854 439.7C931.052 439.7 908.143 433.035 888.163 419.731C868.182 406.436 853.292 387.653 843.493 363.454C833.685 339.237 830.445 311.415 833.774 279.989C837.049 248.928 846.118 221.401 861.017 197.363ZM1068.88 232.563C1062.93 219.072 1054.06 208.721 1042.29 201.503C1030.51 194.293 1017.44 190.706 1003.05 190.706C988.672 190.706 975.01 194.222 962.105 201.235C949.2 208.275 938.252 218.528 929.281 232.028C920.283 245.528 914.818 261.501 912.887 279.989C910.929 298.486 913.003 314.654 919.09 328.503C925.196 342.378 934.025 353.005 945.604 360.402C957.174 367.79 969.972 371.485 983.981 371.485C998.373 371.485 1012.19 367.871 1025.52 360.688C1038.8 353.469 1049.84 343.11 1058.66 329.627C1067.46 316.145 1072.86 299.941 1074.84 281.086C1076.82 262.25 1074.82 246.073 1068.88 232.563Z" fill="url(#paint4_linear_360_1223)"/>
<path d="M1489.46 304.412H1265.43C1264.94 326.603 1270.85 343.976 1283.17 356.54C1295.47 369.103 1311.61 375.403 1331.51 375.403C1360.28 375.403 1382.03 363.009 1396.84 338.239H1480.36C1468.39 367.81 1448.85 392.124 1421.77 411.166C1394.68 430.208 1362.9 439.719 1326.38 439.719C1296.88 439.719 1271.13 433.17 1249.09 420.035C1227.04 406.91 1210.76 388.35 1200.2 364.294C1189.65 340.273 1186.04 312.532 1189.33 281.096C1192.69 249.313 1202.08 221.42 1217.55 197.373C1232.97 173.352 1252.99 154.855 1277.59 141.934C1302.19 128.978 1329.61 122.509 1359.85 122.509C1388.99 122.509 1414.41 128.809 1436.14 141.363C1457.85 153.927 1473.86 171.782 1484.15 194.865C1494.42 217.967 1497.98 244.512 1494.83 274.458C1493.65 285.549 1491.86 295.552 1489.46 304.412ZM1416.95 252.293C1418.69 232.315 1413.18 216.343 1400.45 204.333C1387.7 192.304 1371.19 186.299 1350.91 186.299C1331.73 186.299 1314.99 192.126 1300.66 203.779C1286.34 215.433 1276.61 231.601 1271.49 252.302L1416.95 252.293Z" fill="url(#paint5_linear_360_1223)"/>
<path d="M60.5902 425.516C40.4759 415.924 25.15 402.879 14.5677 386.434C3.99437 369.98 -0.820597 351.741 0.113916 331.763H82.796C83.0274 344.3 88.0738 354.686 97.9708 362.904C107.85 371.149 120.8 375.253 136.838 375.253C152.466 375.253 165.006 372.139 174.485 365.857C183.937 359.584 189.17 351.545 190.212 341.739C191.324 331.165 186.794 323.224 176.594 317.932C166.413 312.641 149.912 306.868 127.127 300.586C103.507 294.706 84.3179 288.638 69.517 282.365C54.7517 276.093 42.4695 266.492 32.6972 253.553C22.916 240.624 19.1958 223.198 21.5098 201.238C23.4055 183.214 30.312 166.769 42.2649 151.868C54.1999 136.975 70.2824 125.215 90.548 116.595C110.805 107.985 134.025 103.666 160.218 103.666C198.907 103.666 228.767 113.347 249.798 132.764C270.811 152.171 280.761 178.324 279.631 211.241H201.061C201.257 198.294 196.976 188.032 188.182 180.376C179.416 172.738 167.018 168.919 150.998 168.919C136.134 168.919 124.395 171.668 115.824 177.146C107.218 182.634 102.421 190.272 101.362 200.06C100.205 211.045 104.797 219.379 115.166 225.045C125.508 230.737 141.884 236.519 164.33 242.391C187.186 248.262 205.876 254.347 220.472 260.62C235.042 266.902 247.217 276.583 256.98 289.709C266.726 302.853 270.66 320.199 268.782 341.739C266.797 360.539 259.837 377.421 247.911 392.305C235.976 407.206 219.902 418.859 199.655 427.283C179.416 435.697 156.391 439.927 130.599 439.927C104.014 439.927 80.6689 435.117 60.5902 425.516Z" fill="url(#paint6_linear_360_1223)"/>
<path d="M419.457 191.197L403.775 339.817C402.68 350.167 404.371 357.663 408.866 362.276C413.351 366.907 421.477 369.209 433.305 369.209H469.253L462.347 434.65H413.681C348.407 434.65 319.117 402.857 325.819 339.264L341.438 191.197H304.939L311.667 127.415H348.167L356.177 51.4546H434.187L426.176 127.415H494.761L488.041 191.197H419.457Z" fill="url(#paint7_linear_360_1223)"/>
<path d="M646.717 136.785C663.716 127.55 682.549 122.937 703.206 122.937L694.609 204.448H674.139C649.806 204.448 630.857 210.176 617.293 221.642C603.721 233.099 595.444 253.06 592.444 281.515L576.291 434.579H498.851L531.265 127.345H608.714L603.676 175.056C615.335 158.789 629.691 146.03 646.717 136.785Z" fill="url(#paint8_linear_360_1223)"/>
<path d="M812.812 127.544L780.398 434.779H702.958L735.372 127.544H812.812ZM745.865 77.9061C737.749 69.233 734.375 58.4184 735.746 45.4802C737.099 32.5419 742.751 21.7273 752.71 13.0186C762.651 4.34547 774.453 0 788.097 0C801.732 0 812.608 4.35439 820.76 13.0186C828.859 21.7273 832.232 32.5419 830.879 45.4802C829.518 58.4273 823.848 69.2419 813.898 77.9061C803.93 86.6149 792.146 90.9514 778.511 90.9514C764.876 90.9514 753.973 86.6149 745.865 77.9061Z" fill="url(#paint9_linear_360_1223)"/>
<path d="M861.017 197.363C875.898 173.342 894.722 154.845 917.48 141.924C940.228 128.968 964.695 122.499 990.897 122.499C1010.81 122.499 1029.34 126.854 1046.49 135.536C1063.64 144.218 1076.8 155.773 1085.98 170.174L1101.36 24.3291H1179.91L1136.6 434.712H1058.07L1062.86 389.232C1051.65 404.41 1036.91 416.59 1018.61 425.834C1000.3 435.087 979.727 439.7 956.854 439.7C931.052 439.7 908.143 433.035 888.163 419.731C868.182 406.436 853.292 387.653 843.493 363.454C833.685 339.237 830.445 311.415 833.774 279.989C837.049 248.928 846.118 221.401 861.017 197.363ZM1068.88 232.563C1062.93 219.072 1054.06 208.721 1042.29 201.503C1030.51 194.293 1017.44 190.706 1003.05 190.706C988.672 190.706 975.01 194.222 962.105 201.235C949.2 208.275 938.252 218.528 929.281 232.028C920.283 245.528 914.818 261.501 912.887 279.989C910.929 298.486 913.003 314.654 919.09 328.503C925.196 342.378 934.025 353.005 945.604 360.402C957.174 367.79 969.972 371.485 983.981 371.485C998.373 371.485 1012.19 367.871 1025.52 360.688C1038.8 353.469 1049.84 343.11 1058.66 329.627C1067.46 316.145 1072.86 299.941 1074.84 281.086C1076.82 262.25 1074.82 246.073 1068.88 232.563Z" fill="url(#paint10_linear_360_1223)"/>
<path d="M1489.46 304.412H1265.43C1264.94 326.603 1270.85 343.976 1283.17 356.54C1295.47 369.103 1311.61 375.403 1331.51 375.403C1360.28 375.403 1382.03 363.009 1396.84 338.239H1480.36C1468.39 367.81 1448.85 392.124 1421.77 411.166C1394.68 430.208 1362.9 439.719 1326.38 439.719C1296.88 439.719 1271.13 433.17 1249.09 420.035C1227.04 406.91 1210.76 388.35 1200.2 364.294C1189.65 340.273 1186.04 312.532 1189.33 281.096C1192.69 249.313 1202.08 221.42 1217.55 197.373C1232.97 173.352 1252.99 154.855 1277.59 141.934C1302.19 128.978 1329.61 122.509 1359.85 122.509C1388.99 122.509 1414.41 128.809 1436.14 141.363C1457.85 153.927 1473.86 171.782 1484.15 194.865C1494.42 217.967 1497.98 244.512 1494.83 274.458C1493.65 285.549 1491.86 295.552 1489.46 304.412ZM1416.95 252.293C1418.69 232.315 1413.18 216.343 1400.45 204.333C1387.7 192.304 1371.19 186.299 1350.91 186.299C1331.73 186.299 1314.99 192.126 1300.66 203.779C1286.34 215.433 1276.61 231.601 1271.49 252.302L1416.95 252.293Z" fill="url(#paint11_linear_360_1223)"/>
</g>
<defs>
<linearGradient id="paint0_linear_360_1223" x1="139.859" y1="103.666" x2="139.859" y2="439.927" gradientUnits="userSpaceOnUse">
<stop stop-color="white"/>
<stop offset="1" stop-color="white" stop-opacity="0"/>
</linearGradient>
<linearGradient id="paint1_linear_360_1223" x1="399.85" y1="51.4546" x2="399.85" y2="434.65" gradientUnits="userSpaceOnUse">
<stop stop-color="white"/>
<stop offset="1" stop-color="white" stop-opacity="0"/>
</linearGradient>
<linearGradient id="paint2_linear_360_1223" x1="601.028" y1="122.937" x2="601.028" y2="434.579" gradientUnits="userSpaceOnUse">
<stop stop-color="white"/>
<stop offset="1" stop-color="white" stop-opacity="0"/>
</linearGradient>
<linearGradient id="paint3_linear_360_1223" x1="767.064" y1="0" x2="767.064" y2="434.779" gradientUnits="userSpaceOnUse">
<stop stop-color="white"/>
<stop offset="1" stop-color="white" stop-opacity="0"/>
</linearGradient>
<linearGradient id="paint4_linear_360_1223" x1="1006.21" y1="24.3291" x2="1006.21" y2="439.7" gradientUnits="userSpaceOnUse">
<stop stop-color="white"/>
<stop offset="1" stop-color="white" stop-opacity="0"/>
</linearGradient>
<linearGradient id="paint5_linear_360_1223" x1="1342.05" y1="122.509" x2="1342.05" y2="439.719" gradientUnits="userSpaceOnUse">
<stop stop-color="white"/>
<stop offset="1" stop-color="white" stop-opacity="0"/>
</linearGradient>
<linearGradient id="paint6_linear_360_1223" x1="139.859" y1="103.666" x2="139.859" y2="439.927" gradientUnits="userSpaceOnUse">
<stop stop-color="white"/>
<stop offset="1" stop-color="white" stop-opacity="0"/>
</linearGradient>
<linearGradient id="paint7_linear_360_1223" x1="399.85" y1="51.4546" x2="399.85" y2="434.65" gradientUnits="userSpaceOnUse">
<stop stop-color="white"/>
<stop offset="1" stop-color="white" stop-opacity="0"/>
</linearGradient>
<linearGradient id="paint8_linear_360_1223" x1="601.028" y1="122.937" x2="601.028" y2="434.579" gradientUnits="userSpaceOnUse">
<stop stop-color="white"/>
<stop offset="1" stop-color="white" stop-opacity="0"/>
</linearGradient>
<linearGradient id="paint9_linear_360_1223" x1="767.064" y1="0" x2="767.064" y2="434.779" gradientUnits="userSpaceOnUse">
<stop stop-color="white"/>
<stop offset="1" stop-color="white" stop-opacity="0"/>
</linearGradient>
<linearGradient id="paint10_linear_360_1223" x1="1006.21" y1="24.3291" x2="1006.21" y2="439.7" gradientUnits="userSpaceOnUse">
<stop stop-color="white"/>
<stop offset="1" stop-color="white" stop-opacity="0"/>
</linearGradient>
<linearGradient id="paint11_linear_360_1223" x1="1342.05" y1="122.509" x2="1342.05" y2="439.719" gradientUnits="userSpaceOnUse">
<stop stop-color="white"/>
<stop offset="1" stop-color="white" stop-opacity="0"/>
</linearGradient>
</defs>
</svg>
