<svg width="629" height="207" viewBox="0 0 629 207" fill="none" xmlns="http://www.w3.org/2000/svg">
<path d="M577.29 156.04C569.357 156.04 562.557 154.453 556.89 151.28C551.224 148.107 546.917 143.63 543.97 137.85C541.137 132.07 539.947 125.327 540.4 117.62C540.627 110.48 542.044 103.85 544.65 97.73C547.37 91.4967 551.054 86.0567 555.7 81.41C560.46 76.65 565.957 72.9667 572.19 70.36C578.424 67.64 585.337 66.28 592.93 66.28C600.75 66.28 607.38 67.8667 612.82 71.04C618.374 74.2134 622.51 78.5767 625.23 84.13C627.95 89.57 629.14 95.86 628.8 103C628.8 105.38 628.517 107.817 627.95 110.31C627.497 112.803 626.987 115.07 626.42 117.11H557.06L559.61 102.66H605.17C605.624 99.0334 605.227 95.9734 603.98 93.48C602.734 90.8734 600.864 88.89 598.37 87.53C595.99 86.17 593.157 85.49 589.87 85.49C586.017 85.49 582.334 86.3967 578.82 88.21C575.42 90.0234 572.474 92.6867 569.98 96.2C567.487 99.7134 565.787 104.19 564.88 109.63L564.03 114.56C563.237 118.867 563.35 122.663 564.37 125.95C565.504 129.237 567.43 131.843 570.15 133.77C572.87 135.697 576.327 136.66 580.52 136.66C584.6 136.66 588.114 135.81 591.06 134.11C594.007 132.41 596.387 130.2 598.2 127.48H622.51C619.904 132.92 616.334 137.793 611.8 142.1C607.267 146.407 602.054 149.807 596.16 152.3C590.267 154.793 583.977 156.04 577.29 156.04Z" fill="white"/>
<path d="M468.946 156.04C461.919 156.04 455.856 154.34 450.756 150.94C445.769 147.427 441.973 142.723 439.366 136.83C436.873 130.823 435.796 124.08 436.136 116.6C436.476 109.347 437.893 102.717 440.386 96.71C442.993 90.59 446.449 85.2633 450.756 80.73C455.176 76.1966 460.219 72.6833 465.886 70.19C471.553 67.5833 477.673 66.28 484.246 66.28C490.819 66.28 496.203 67.47 500.396 69.85C504.589 72.23 507.706 75.29 509.746 79.03L518.076 31.6H541.876L520.286 154H499.036L498.526 142.44C496.486 144.82 494.049 147.087 491.216 149.24C488.383 151.28 485.153 152.923 481.526 154.17C477.899 155.417 473.706 156.04 468.946 156.04ZM478.806 135.3C483.679 135.3 488.043 134.053 491.896 131.56C495.749 129.067 498.809 125.723 501.076 121.53C503.456 117.337 504.759 112.69 504.986 107.59C505.213 103.51 504.589 99.94 503.116 96.88C501.756 93.7066 499.659 91.27 496.826 89.57C493.993 87.87 490.593 87.02 486.626 87.02C481.866 87.02 477.559 88.21 473.706 90.59C469.966 92.97 466.906 96.2 464.526 100.28C462.259 104.36 461.013 108.95 460.786 114.05C460.559 118.13 461.126 121.813 462.486 125.1C463.846 128.273 465.943 130.767 468.776 132.58C471.609 134.393 474.953 135.3 478.806 135.3Z" fill="white"/>
<path d="M391.545 154L406.675 68.32H430.475L415.345 154H391.545ZM422.995 57.78C418.575 57.78 415.005 56.4767 412.285 53.87C409.565 51.2633 408.205 48.09 408.205 44.35C408.319 40.4967 409.679 37.2667 412.285 34.66C415.005 32.0533 418.575 30.75 422.995 30.75C427.189 30.75 430.645 32.0533 433.365 34.66C436.199 37.1533 437.559 40.3833 437.445 44.35C437.445 48.09 436.085 51.2633 433.365 53.87C430.645 56.4767 427.189 57.78 422.995 57.78Z" fill="white"/>
<path d="M327.445 154L342.405 68.32H363.655L363.145 83.79C365.978 80.1634 369.151 77.1034 372.665 74.61C376.291 72.0034 380.201 69.9634 384.395 68.49C388.701 67.0167 393.235 66.28 397.995 66.28L393.745 91.44H385.585C382.185 91.44 378.955 91.8367 375.895 92.63C372.948 93.31 370.285 94.5567 367.905 96.37C365.525 98.07 363.485 100.393 361.785 103.34C360.198 106.173 359.008 109.743 358.215 114.05L351.245 154H327.445Z" fill="white"/>
<path d="M299.128 154C292.328 154 286.831 152.923 282.638 150.77C278.445 148.503 275.611 145.16 274.138 140.74C272.778 136.207 272.665 130.427 273.798 123.4L280.088 88.21H265.808L269.378 68.32H283.658L290.458 44.69H311.708L307.458 68.32H329.898L326.328 88.21H303.888L297.598 123.74C297.031 127.593 297.485 130.257 298.958 131.73C300.545 133.09 303.095 133.77 306.608 133.77H318.508L314.938 154H299.128Z" fill="white"/>
<path d="M205.73 156.04C197.117 156.04 189.637 154.567 183.29 151.62C176.943 148.673 172.24 144.367 169.18 138.7C166.12 133.033 165.213 126.177 166.46 118.13H191.62C191.053 121.757 191.393 124.93 192.64 127.65C194 130.37 196.097 132.467 198.93 133.94C201.763 135.413 205.05 136.15 208.79 136.15C212.643 136.15 215.987 135.47 218.82 134.11C221.767 132.75 224.033 130.88 225.62 128.5C227.207 126.12 228.057 123.343 228.17 120.17C228.283 117.903 227.887 115.92 226.98 114.22C226.073 112.52 224.77 110.99 223.07 109.63C221.37 108.27 219.387 107.08 217.12 106.06C214.853 104.927 212.36 103.907 209.64 103C206.92 101.98 204.143 100.96 201.31 99.94C193.263 97.22 187.143 93.4233 182.95 88.55C178.87 83.6766 177 77.67 177.34 70.53C177.68 62.9366 179.89 56.3633 183.97 50.81C188.05 45.1433 193.547 40.78 200.46 37.72C207.487 34.5466 215.363 32.96 224.09 32.96C232.023 32.96 238.823 34.32 244.49 37.04C250.27 39.76 254.52 43.7266 257.24 48.94C260.073 54.04 260.98 60.2733 259.96 67.64H234.46C235.027 64.6933 234.743 62.1433 233.61 59.99C232.477 57.7233 230.72 56.0233 228.34 54.89C226.073 53.6433 223.353 53.02 220.18 53.02C216.893 52.9066 213.947 53.4733 211.34 54.72C208.847 55.8533 206.863 57.4966 205.39 59.65C203.917 61.69 203.123 64.1266 203.01 66.96C202.897 69 203.18 70.7566 203.86 72.23C204.653 73.7033 205.787 75.0633 207.26 76.31C208.733 77.4433 210.433 78.52 212.36 79.54C214.4 80.4466 216.667 81.3533 219.16 82.26C221.653 83.0533 224.203 83.96 226.81 84.98C230.663 86.34 234.29 87.9833 237.69 89.91C241.09 91.7233 244.037 93.9333 246.53 96.54C249.137 99.1466 251.063 102.207 252.31 105.72C253.67 109.12 254.237 113.03 254.01 117.45C253.783 125.043 251.573 131.73 247.38 137.51C243.187 143.29 237.52 147.823 230.38 151.11C223.24 154.397 215.023 156.04 205.73 156.04Z" fill="white"/>
<path d="M127.615 114.535L68.1916 80.6441L107.43 58.2903L113.153 68.2307C115.081 71.5201 119.849 71.3881 121.166 68.0086L138.208 18.0665C139.441 14.9091 137.26 11.2535 133.791 10.6532L83.064 3.07186C79.3837 2.42957 76.8214 6.21725 78.731 9.47669L84.6292 19.3751L11.3854 61.1055C4.34507 65.1153 0 72.5646 0 80.6261C0 88.6877 4.33903 96.137 11.3794 100.153L70.8204 134.056L11.3794 167.959L33.9508 207L127.621 153.576C134.661 149.561 139 142.117 139 134.056C139 125.994 134.661 118.551 127.621 114.535H127.615Z" fill="#6222FF"/>
</svg>
