<svg width="20" height="20" viewBox="0 0 20 20" fill="none" xmlns="http://www.w3.org/2000/svg">
<path opacity="0.2" d="M15.9375 13.125C16.2617 13.1253 16.5819 13.0535 16.875 12.9148V16.25C16.875 16.4157 16.8092 16.5747 16.692 16.6919C16.5747 16.8091 16.4158 16.875 16.25 16.875H5.00001C4.83425 16.875 4.67528 16.8091 4.55807 16.6919C4.44086 16.5747 4.37501 16.4157 4.37501 16.25V12.9148C4.0416 13.0726 3.67371 13.1435 3.30555 13.1209C2.93739 13.0983 2.58092 12.983 2.26928 12.7857C1.95764 12.5884 1.70095 12.3155 1.52309 11.9923C1.34522 11.6692 1.25195 11.3063 1.25195 10.9375C1.25195 10.5686 1.34522 10.2058 1.52309 9.88264C1.70095 9.5595 1.95764 9.28659 2.26928 9.08928C2.58092 8.89197 2.93739 8.77666 3.30555 8.75408C3.67371 8.7315 4.0416 8.80239 4.37501 8.96014V5.62498C4.37501 5.45922 4.44086 5.30025 4.55807 5.18304C4.67528 5.06583 4.83425 4.99998 5.00001 4.99998H8.64767C8.48974 4.66656 8.41871 4.29862 8.44118 3.93038C8.46365 3.56213 8.57889 3.20555 8.77618 2.89381C8.97346 2.58206 9.24639 2.32528 9.56958 2.14734C9.89276 1.96941 10.2557 1.8761 10.6246 1.8761C10.9935 1.8761 11.3565 1.96941 11.6797 2.14734C12.0028 2.32528 12.2758 2.58206 12.4731 2.89381C12.6704 3.20555 12.7856 3.56213 12.8081 3.93038C12.8305 4.29862 12.7595 4.66656 12.6016 4.99998H16.25C16.4158 4.99998 16.5747 5.06583 16.692 5.18304C16.8092 5.30025 16.875 5.45922 16.875 5.62498V8.96014C16.5786 8.8199 16.2545 8.74808 15.9265 8.75002C15.5986 8.75196 15.2754 8.82759 14.9806 8.97132C14.6859 9.11505 14.4272 9.3232 14.2238 9.58038C14.0204 9.83756 13.8774 10.1372 13.8054 10.4571C13.7333 10.777 13.7342 11.109 13.8078 11.4286C13.8814 11.7481 14.0259 12.047 14.2306 12.3032C14.4354 12.5593 14.695 12.7662 14.9905 12.9084C15.2859 13.0507 15.6096 13.1247 15.9375 13.125Z" fill="url(#paint0_linear_99_953)"/>
<path d="M17.2088 12.386C17.1196 12.3298 17.0178 12.297 16.9126 12.2907C16.8074 12.2844 16.7024 12.3048 16.6072 12.35C16.369 12.4627 16.1063 12.5133 15.8433 12.4971C15.5804 12.4809 15.3258 12.3986 15.1032 12.2576C14.8807 12.1167 14.6973 11.9217 14.5703 11.6909C14.4433 11.4601 14.3767 11.201 14.3767 10.9375C14.3767 10.6741 14.4433 10.4149 14.5703 10.1841C14.6973 9.95334 14.8807 9.7584 15.1032 9.61746C15.3258 9.47652 15.5804 9.39414 15.8433 9.37798C16.1063 9.36182 16.369 9.4124 16.6072 9.52503C16.7025 9.57025 16.8077 9.59062 16.9129 9.58425C17.0182 9.57788 17.1201 9.54497 17.2093 9.4886C17.2984 9.43221 17.3718 9.3542 17.4227 9.26181C17.4735 9.16941 17.5002 9.06566 17.5002 8.96019V5.62503C17.5002 5.29351 17.3685 4.97557 17.1341 4.74115C16.8996 4.50673 16.5817 4.37503 16.2502 4.37503H13.4205C13.4321 4.27128 13.4378 4.16694 13.4377 4.06253C13.437 3.67831 13.358 3.29826 13.2054 2.94563C13.0528 2.59301 12.8298 2.27524 12.5502 2.01175C12.1628 1.64798 11.6804 1.40139 11.1586 1.30052C10.6369 1.19966 10.0973 1.24866 9.6023 1.44184C9.10728 1.63502 8.67712 1.96449 8.36163 2.39207C8.04615 2.81966 7.85825 3.32787 7.8197 3.85785C7.80769 4.03022 7.81135 4.20332 7.83064 4.37503H5.00017C4.66865 4.37503 4.3507 4.50673 4.11628 4.74115C3.88186 4.97557 3.75017 5.29351 3.75017 5.62503V8.14222C3.64641 8.13059 3.54208 8.12485 3.43767 8.12503C3.05355 8.12565 2.67361 8.20469 2.32111 8.35729C1.96861 8.5099 1.65098 8.73287 1.38767 9.01253C1.12247 9.29267 0.918268 9.62476 0.787964 9.98784C0.65766 10.3509 0.604089 10.7371 0.630636 11.1219C0.675424 11.7995 0.963352 12.4382 1.44147 12.9205C1.91959 13.4028 2.55576 13.6962 3.23298 13.7469C3.40535 13.7589 3.57846 13.7553 3.75017 13.736V16.25C3.75017 16.5816 3.88186 16.8995 4.11628 17.1339C4.3507 17.3683 4.66865 17.5 5.00017 17.5H16.2502C16.5817 17.5 16.8996 17.3683 17.1341 17.1339C17.3685 16.8995 17.5002 16.5816 17.5002 16.25V12.9149C17.5002 12.8093 17.4735 12.7054 17.4226 12.6129C17.3716 12.5204 17.2981 12.4423 17.2088 12.386ZM16.2502 16.25H5.00017V12.9149C5.0002 12.8094 4.97355 12.7057 4.92269 12.6133C4.87182 12.5209 4.79841 12.4429 4.70928 12.3865C4.62015 12.3301 4.5182 12.2972 4.41293 12.2908C4.30765 12.2844 4.20248 12.3048 4.1072 12.35C3.86905 12.4627 3.60628 12.5133 3.34334 12.4971C3.08039 12.4809 2.8258 12.3986 2.60323 12.2576C2.38066 12.1167 2.19734 11.9217 2.07032 11.6909C1.94329 11.4601 1.87668 11.201 1.87668 10.9375C1.87668 10.6741 1.94329 10.4149 2.07032 10.1841C2.19734 9.95334 2.38066 9.7584 2.60323 9.61746C2.8258 9.47652 3.08039 9.39414 3.34334 9.37798C3.60628 9.36182 3.86905 9.4124 4.1072 9.52503C4.20248 9.57025 4.30765 9.59062 4.41293 9.58425C4.5182 9.57788 4.62015 9.54497 4.70928 9.4886C4.79841 9.43221 4.87182 9.3542 4.92269 9.26181C4.97355 9.16941 5.0002 9.06566 5.00017 8.96019V5.62503H8.64782C8.75329 5.62507 8.85705 5.59841 8.94944 5.54755C9.04183 5.49669 9.11985 5.42328 9.17623 5.33414C9.23261 5.24501 9.26551 5.14306 9.27189 5.03779C9.27826 4.93252 9.25789 4.82735 9.21267 4.73206C9.10004 4.49391 9.04945 4.23115 9.06561 3.9682C9.08177 3.70526 9.16415 3.45066 9.30509 3.2281C9.44604 3.00553 9.64097 2.82221 9.87176 2.69518C10.1026 2.56815 10.3617 2.50155 10.6252 2.50155C10.8886 2.50155 11.1478 2.56815 11.3786 2.69518C11.6094 2.82221 11.8043 3.00553 11.9452 3.2281C12.0862 3.45066 12.1686 3.70526 12.1847 3.9682C12.2009 4.23115 12.1503 4.49391 12.0377 4.73206C11.9924 4.82735 11.9721 4.93252 11.9784 5.03779C11.9848 5.14306 12.0177 5.24501 12.0741 5.33414C12.1305 5.42328 12.2085 5.49669 12.3009 5.54755C12.3933 5.59841 12.497 5.62507 12.6025 5.62503H16.2502V8.143C16.0785 8.12333 15.9053 8.11967 15.733 8.13206C15.0056 8.18357 14.3266 8.5156 13.8393 9.05811C13.352 9.60062 13.0945 10.3112 13.121 11.0399C13.1476 11.7687 13.4561 12.4586 13.9816 12.9643C14.5071 13.4699 15.2084 13.7516 15.9377 13.75C16.0421 13.7502 16.1464 13.7445 16.2502 13.7328V16.25Z" fill="url(#paint1_linear_99_953)"/>
<defs>
<linearGradient id="paint0_linear_99_953" x1="11.7508" y1="1.99664" x2="8.68485" y2="18.2749" gradientUnits="userSpaceOnUse">
<stop stop-color="#74E9F1"/>
<stop offset="1" stop-color="#20E24A"/>
</linearGradient>
<linearGradient id="paint1_linear_99_953" x1="11.9649" y1="1.37999" x2="8.63383" y2="19.0132" gradientUnits="userSpaceOnUse">
<stop stop-color="#74E9F1"/>
<stop offset="1" stop-color="#20E24A"/>
</linearGradient>
</defs>
</svg>
