<svg width="20" height="20" viewBox="0 0 20 20" fill="none" xmlns="http://www.w3.org/2000/svg">
<path opacity="0.2" d="M16.2501 8.12502C16.2509 9.07202 16.0362 10.0068 15.6221 10.8585C15.208 11.7101 14.6055 12.4564 13.8603 13.0406C13.6326 13.217 13.4482 13.4429 13.3208 13.7012C13.1934 13.9595 13.1265 14.2433 13.1251 14.5313V15C13.1251 15.1658 13.0592 15.3248 12.942 15.442C12.8248 15.5592 12.6659 15.625 12.5001 15.625H7.5001C7.33434 15.625 7.17536 15.5592 7.05815 15.442C6.94094 15.3248 6.8751 15.1658 6.8751 15V14.5313C6.8748 14.2449 6.8092 13.9624 6.6833 13.7051C6.5574 13.4479 6.37451 13.2228 6.14853 13.0469C5.40554 12.4665 4.80374 11.7252 4.38833 10.8789C3.97293 10.0325 3.75472 9.10299 3.7501 8.16017C3.73135 4.77267 6.4626 1.95314 9.84931 1.87502C10.6827 1.85491 11.5116 2.00171 12.2874 2.30679C13.0632 2.61186 13.7701 3.06905 14.3665 3.65143C14.963 4.23381 15.4369 4.92962 15.7603 5.6979C16.0838 6.46618 16.2503 7.29141 16.2501 8.12502Z" fill="url(#paint0_linear_77_2051)"/>
<path d="M13.7501 18.125C13.7501 18.2907 13.6843 18.4497 13.567 18.5669C13.4498 18.6841 13.2909 18.75 13.1251 18.75H6.8751C6.70934 18.75 6.55037 18.6841 6.43316 18.5669C6.31595 18.4497 6.2501 18.2907 6.2501 18.125C6.2501 17.9592 6.31595 17.8002 6.43316 17.683C6.55037 17.5658 6.70934 17.5 6.8751 17.5H13.1251C13.2909 17.5 13.4498 17.5658 13.567 17.683C13.6843 17.8002 13.7501 17.9592 13.7501 18.125ZM16.8751 8.12498C16.8778 9.16689 16.6424 10.1956 16.1869 11.1327C15.7315 12.0698 15.0679 12.8904 14.247 13.532C14.0935 13.6497 13.9689 13.8009 13.8828 13.9741C13.7967 14.1472 13.7513 14.3378 13.7501 14.5312V15C13.7501 15.3315 13.6184 15.6494 13.384 15.8839C13.1496 16.1183 12.8316 16.25 12.5001 16.25H7.5001C7.16858 16.25 6.85064 16.1183 6.61622 15.8839C6.3818 15.6494 6.2501 15.3315 6.2501 15V14.5312C6.24997 14.3401 6.20603 14.1516 6.12166 13.9802C6.03728 13.8087 5.91472 13.6589 5.76338 13.5422C4.94448 12.9044 4.28139 12.0887 3.8243 11.1568C3.36722 10.2249 3.12812 9.20122 3.1251 8.16326C3.10479 4.43983 6.11416 1.33904 9.83448 1.24998C10.7512 1.22789 11.663 1.3894 12.5163 1.725C13.3696 2.06059 14.1472 2.5635 14.8033 3.20411C15.4593 3.84473 15.9806 4.61011 16.3364 5.45521C16.6922 6.3003 16.8754 7.20804 16.8751 8.12498ZM15.6251 8.12498C15.6253 7.37472 15.4754 6.63199 15.1843 5.94052C14.8932 5.24905 14.4666 4.62281 13.9298 4.09866C13.393 3.57452 12.7568 3.16306 12.0585 2.8885C11.3603 2.61395 10.6142 2.48185 9.86417 2.49998C6.81729 2.57186 4.3587 5.10858 4.3751 8.15545C4.37796 9.00435 4.57385 9.84147 4.94796 10.6035C5.32206 11.3655 5.86459 12.0325 6.53448 12.5539C6.8356 12.788 7.07918 13.0879 7.24655 13.4306C7.41392 13.7733 7.50065 14.1498 7.5001 14.5312V15H12.5001V14.5312C12.501 14.1487 12.5892 13.7715 12.758 13.4283C12.9269 13.085 13.1719 12.7849 13.4743 12.5508C14.1463 12.0256 14.6894 11.3539 15.0621 10.5869C15.4349 9.81985 15.6274 8.97779 15.6251 8.12498ZM14.3665 7.39529C14.2044 6.49006 13.7689 5.6562 13.1186 5.006C12.4682 4.35579 11.6343 3.92044 10.729 3.75858C10.6481 3.74493 10.5652 3.74736 10.4852 3.76573C10.4052 3.7841 10.3296 3.81805 10.2627 3.86564C10.1958 3.91323 10.139 3.97353 10.0954 4.0431C10.0518 4.11266 10.0223 4.19013 10.0087 4.27108C9.99505 4.35202 9.99748 4.43487 10.0159 4.51487C10.0342 4.59488 10.0682 4.67049 10.1158 4.73737C10.1634 4.80426 10.2237 4.86112 10.2932 4.9047C10.3628 4.94829 10.4402 4.97774 10.5212 4.99139C11.8157 5.20936 12.9142 6.30779 13.1337 7.60467C13.1584 7.75023 13.2339 7.88234 13.3467 7.97758C13.4595 8.07282 13.6025 8.12504 13.7501 8.12498C13.7854 8.12477 13.8207 8.1219 13.8556 8.11639C14.0189 8.0885 14.1645 7.99686 14.2604 7.86164C14.3562 7.72641 14.3944 7.55867 14.3665 7.39529Z" fill="url(#paint1_linear_77_2051)"/>
<defs>
<linearGradient id="paint0_linear_77_2051" x1="12.1502" y1="1.98372" x2="8.96316" y2="16.7501" gradientUnits="userSpaceOnUse">
<stop stop-color="#74E9F1"/>
<stop offset="1" stop-color="#20E24A"/>
</linearGradient>
<linearGradient id="paint1_linear_77_2051" x1="12.3652" y1="1.38865" x2="7.74195" y2="19.9029" gradientUnits="userSpaceOnUse">
<stop stop-color="#74E9F1"/>
<stop offset="1" stop-color="#20E24A"/>
</linearGradient>
</defs>
</svg>
