<svg width="21" height="20" viewBox="0 0 21 20" fill="none" xmlns="http://www.w3.org/2000/svg">
<path opacity="0.2" d="M16.5831 8.12499C16.5839 9.07199 16.3692 10.0068 15.9551 10.8584C15.5411 11.7101 14.9385 12.4564 14.1933 13.0406C13.9657 13.217 13.7812 13.4429 13.6538 13.7012C13.5264 13.9594 13.4595 14.2433 13.4581 14.5312V15C13.4581 15.1657 13.3923 15.3247 13.275 15.4419C13.1578 15.5591 12.9989 15.625 12.8331 15.625H7.8331C7.66734 15.625 7.50837 15.5591 7.39116 15.4419C7.27395 15.3247 7.2081 15.1657 7.2081 15V14.5312C7.2078 14.2449 7.14221 13.9623 7.01631 13.7051C6.89041 13.4479 6.70752 13.2228 6.48154 13.0469C5.73855 12.4664 5.13675 11.7252 4.72134 10.8788C4.30593 10.0325 4.08772 9.10296 4.0831 8.16014C4.06435 4.77264 6.7956 1.95311 10.1823 1.87499C11.0157 1.85488 11.8447 2.00168 12.6204 2.30676C13.3962 2.61183 14.1031 3.06901 14.6995 3.6514C15.296 4.23378 15.7699 4.92959 16.0933 5.69787C16.4168 6.46615 16.5833 7.29138 16.5831 8.12499Z" fill="url(#paint0_linear_99_1000)"/>
<path d="M14.0831 18.125C14.0831 18.2908 14.0173 18.4498 13.9001 18.567C13.7828 18.6842 13.6239 18.75 13.4581 18.75H7.20811C7.04235 18.75 6.88338 18.6842 6.76617 18.567C6.64896 18.4498 6.58311 18.2908 6.58311 18.125C6.58311 17.9593 6.64896 17.8003 6.76617 17.6831C6.88338 17.5659 7.04235 17.5 7.20811 17.5H13.4581C13.6239 17.5 13.7828 17.5659 13.9001 17.6831C14.0173 17.8003 14.0831 17.9593 14.0831 18.125ZM17.2081 8.12504C17.2108 9.16695 16.9754 10.1957 16.52 11.1328C16.0645 12.0699 15.4009 12.8905 14.58 13.5321C14.4265 13.6497 14.3019 13.8009 14.2158 13.9741C14.1297 14.1473 14.0843 14.3379 14.0831 14.5313V15C14.0831 15.3316 13.9514 15.6495 13.717 15.8839C13.4826 16.1183 13.1646 16.25 12.8331 16.25H7.83311C7.50159 16.25 7.18365 16.1183 6.94923 15.8839C6.71481 15.6495 6.58311 15.3316 6.58311 15V14.5313C6.58298 14.3402 6.53904 14.1517 6.45467 13.9802C6.37029 13.8088 6.24772 13.6589 6.09639 13.5422C5.27749 12.9045 4.6144 12.0887 4.15731 11.1568C3.70023 10.2249 3.46113 9.20128 3.45811 8.16332C3.4378 4.43989 6.44717 1.3391 10.1675 1.25004C11.0842 1.22795 11.996 1.38946 12.8493 1.72506C13.7027 2.06065 14.4802 2.56356 15.1363 3.20418C15.7923 3.84479 16.3136 4.61017 16.6694 5.45527C17.0252 6.30036 17.2084 7.2081 17.2081 8.12504ZM15.9581 8.12504C15.9583 7.37478 15.8085 6.63205 15.5173 5.94058C15.2262 5.24911 14.7996 4.62287 14.2628 4.09872C13.726 3.57458 13.0898 3.16312 12.3915 2.88856C11.6933 2.61401 10.9472 2.48191 10.1972 2.50004C7.1503 2.57192 4.6917 5.10864 4.70811 8.15551C4.71096 9.00441 4.90686 9.84153 5.28096 10.6036C5.65507 11.3656 6.19759 12.0325 6.86749 12.5539C7.16861 12.788 7.41219 13.0879 7.57956 13.4307C7.74693 13.7734 7.83366 14.1499 7.83311 14.5313V15H12.8331V14.5313C12.834 14.1488 12.9222 13.7715 13.091 13.4283C13.2599 13.0851 13.5049 12.785 13.8073 12.5508C14.4793 12.0257 15.0224 11.354 15.3951 10.5869C15.7679 9.81991 15.9604 8.97785 15.9581 8.12504ZM14.6995 7.39536C14.5375 6.49012 14.1019 5.65626 13.4516 5.00606C12.8012 4.35585 11.9673 3.92051 11.062 3.75864C10.9811 3.74499 10.8982 3.74742 10.8182 3.76579C10.7382 3.78416 10.6626 3.81811 10.5957 3.8657C10.5288 3.91329 10.472 3.97359 10.4284 4.04316C10.3848 4.11272 10.3553 4.19019 10.3417 4.27114C10.3281 4.35208 10.3305 4.43493 10.3489 4.51493C10.3672 4.59494 10.4012 4.67055 10.4488 4.73743C10.4964 4.80432 10.5567 4.86118 10.6262 4.90476C10.6958 4.94835 10.7733 4.9778 10.8542 4.99145C12.1487 5.20942 13.2472 6.30785 13.4667 7.60473C13.4914 7.75029 13.5669 7.8824 13.6797 7.97764C13.7926 8.07288 13.9355 8.1251 14.0831 8.12504C14.1184 8.12483 14.1537 8.12196 14.1886 8.11645C14.3519 8.08856 14.4975 7.99693 14.5934 7.8617C14.6892 7.72647 14.7274 7.55873 14.6995 7.39536Z" fill="url(#paint1_linear_99_1000)"/>
<defs>
<linearGradient id="paint0_linear_99_1000" x1="6.22947" y1="15.8215" x2="14.1845" y2="1.03454" gradientUnits="userSpaceOnUse">
<stop stop-color="#6B94FF"/>
<stop offset="1" stop-color="#8BB5FD"/>
</linearGradient>
<linearGradient id="paint1_linear_99_1000" x1="5.81912" y1="19.0001" x2="16.7056" y2="1.51019" gradientUnits="userSpaceOnUse">
<stop stop-color="#6B94FF"/>
<stop offset="1" stop-color="#8BB5FD"/>
</linearGradient>
</defs>
</svg>
