<svg width="20" height="20" viewBox="0 0 20 20" fill="none" xmlns="http://www.w3.org/2000/svg">
<path opacity="0.2" d="M18.125 4.375V9.375L13.125 4.375H18.125Z" fill="url(#paint0_linear_99_947)"/>
<path d="M18.1249 3.75H13.1249C13.0012 3.7499 12.8802 3.78651 12.7774 3.85517C12.6745 3.92384 12.5943 4.02149 12.547 4.13576C12.4996 4.25002 12.4872 4.37576 12.5114 4.49707C12.5356 4.61837 12.5952 4.72978 12.6827 4.81719L14.7413 6.875L10.6249 10.9914L7.94205 8.30781C7.884 8.2497 7.81507 8.2036 7.7392 8.17215C7.66332 8.1407 7.58199 8.12451 7.49986 8.12451C7.41772 8.12451 7.33639 8.1407 7.26052 8.17215C7.18465 8.2036 7.11572 8.2497 7.05767 8.30781L1.43267 13.9328C1.3154 14.0501 1.24951 14.2091 1.24951 14.375C1.24951 14.5409 1.3154 14.6999 1.43267 14.8172C1.54995 14.9345 1.70901 15.0003 1.87486 15.0003C2.04071 15.0003 2.19977 14.9345 2.31705 14.8172L7.49986 9.63359L10.1827 12.3172C10.2407 12.3753 10.3096 12.4214 10.3855 12.4529C10.4614 12.4843 10.5427 12.5005 10.6249 12.5005C10.707 12.5005 10.7883 12.4843 10.8642 12.4529C10.9401 12.4214 11.009 12.3753 11.067 12.3172L15.6249 7.75859L17.6827 9.81719C17.7701 9.9047 17.8815 9.9643 18.0028 9.98846C18.1241 10.0126 18.2498 10.0002 18.3641 9.95289C18.4784 9.90554 18.576 9.82536 18.6447 9.72249C18.7134 9.61962 18.75 9.49868 18.7499 9.375V4.375C18.7499 4.20924 18.684 4.05027 18.5668 3.93306C18.4496 3.81585 18.2906 3.75 18.1249 3.75ZM17.4999 7.86641L14.6335 5H17.4999V7.86641Z" fill="url(#paint1_linear_99_947)"/>
<defs>
<linearGradient id="paint0_linear_99_947" x1="16.485" y1="4.41518" x2="15.4235" y2="9.82593" gradientUnits="userSpaceOnUse">
<stop stop-color="#74E9F1"/>
<stop offset="1" stop-color="#20E24A"/>
</linearGradient>
<linearGradient id="paint1_linear_99_947" x1="13.0099" y1="3.84042" x2="11.4403" y2="16.2856" gradientUnits="userSpaceOnUse">
<stop stop-color="#74E9F1"/>
<stop offset="1" stop-color="#20E24A"/>
</linearGradient>
</defs>
</svg>
