<svg width="20" height="20" viewBox="0 0 20 20" fill="none" xmlns="http://www.w3.org/2000/svg">
<path opacity="0.2" d="M17.3172 7.05779L15 9.37498L10.625 4.99998L12.9422 2.68279C13.0594 2.56567 13.2183 2.49988 13.384 2.49988C13.5497 2.49988 13.7086 2.56567 13.8258 2.68279L17.3172 6.17185C17.3755 6.22993 17.4218 6.29896 17.4534 6.37497C17.485 6.45099 17.5013 6.5325 17.5013 6.61482C17.5013 6.69714 17.485 6.77865 17.4534 6.85467C17.4218 6.93069 17.3755 6.99972 17.3172 7.05779Z" fill="url(#paint0_linear_99_934)"/>
<path d="M17.7586 5.73201L14.268 2.24061C14.1519 2.1245 14.0141 2.0324 13.8624 1.96957C13.7107 1.90673 13.5482 1.87439 13.384 1.87439C13.2198 1.87439 13.0572 1.90673 12.9056 1.96957C12.7539 2.0324 12.6161 2.1245 12.5 2.24061L2.86641 11.875C2.74983 11.9906 2.65741 12.1283 2.59451 12.28C2.5316 12.4317 2.49948 12.5944 2.50001 12.7586V16.25C2.50001 16.5815 2.6317 16.8994 2.86612 17.1339C3.10054 17.3683 3.41849 17.5 3.75001 17.5H7.24141C7.40563 17.5005 7.5683 17.4684 7.71999 17.4055C7.87168 17.3426 8.00935 17.2502 8.12501 17.1336L17.7586 7.49998C17.8747 7.38391 17.9668 7.24609 18.0296 7.09442C18.0925 6.94274 18.1248 6.78017 18.1248 6.616C18.1248 6.45182 18.0925 6.28925 18.0296 6.13758C17.9668 5.9859 17.8747 5.84809 17.7586 5.73201ZM7.24141 16.25H3.75001V12.7586L10.625 5.88358L14.1164 9.37498L7.24141 16.25ZM15 8.49061L11.5086 4.99998L13.3836 3.12498L16.875 6.61561L15 8.49061Z" fill="url(#paint1_linear_99_934)"/>
<defs>
<linearGradient id="paint0_linear_99_934" x1="15.2459" y1="2.55513" x2="13.7866" y2="9.99511" gradientUnits="userSpaceOnUse">
<stop stop-color="#74E9F1"/>
<stop offset="1" stop-color="#20E24A"/>
</linearGradient>
<linearGradient id="paint1_linear_99_934" x1="13" y1="1.99997" x2="9.68255" y2="18.9091" gradientUnits="userSpaceOnUse">
<stop stop-color="#74E9F1"/>
<stop offset="1" stop-color="#20E24A"/>
</linearGradient>
</defs>
</svg>
