<svg width="21" height="20" viewBox="0 0 21 20" fill="none" xmlns="http://www.w3.org/2000/svg">
<path opacity="0.2" d="M7.83301 18.75L9.08301 12.5L4.08301 10.625L12.833 1.25L11.583 7.5L16.583 9.375L7.83301 18.75Z" fill="url(#paint0_linear_99_1025)"/>
<path d="M17.1914 9.23208C17.1677 9.1319 17.1197 9.03913 17.0515 8.96199C16.9834 8.88484 16.8972 8.82573 16.8008 8.78989L12.3 7.10161L13.4453 1.3727C13.4712 1.23959 13.4532 1.10166 13.3938 0.979716C13.3345 0.857774 13.2371 0.758439 13.1164 0.6967C12.9956 0.634962 12.8581 0.61417 12.7245 0.637463C12.5909 0.660755 12.4685 0.726868 12.3758 0.825824L3.62576 10.2008C3.55469 10.2757 3.50328 10.367 3.47612 10.4666C3.44896 10.5662 3.44689 10.671 3.47011 10.7716C3.49332 10.8722 3.54109 10.9655 3.60915 11.0431C3.67721 11.1207 3.76344 11.1803 3.86013 11.2165L8.36248 12.9047L7.22029 18.6274C7.19436 18.7605 7.21242 18.8984 7.27175 19.0204C7.33109 19.1423 7.42847 19.2416 7.54922 19.3034C7.66996 19.3651 7.80751 19.3859 7.9411 19.3626C8.0747 19.3393 8.19709 19.2732 8.28982 19.1743L17.0398 9.79926C17.1096 9.72436 17.1599 9.63347 17.1863 9.53457C17.2128 9.43567 17.2145 9.3318 17.1914 9.23208ZM8.87732 16.7188L9.69529 12.6266C9.72456 12.4815 9.70137 12.3307 9.62983 12.201C9.55829 12.0714 9.44306 11.9714 9.30466 11.9188L5.17654 10.368L11.7875 3.2852L10.9703 7.37739C10.941 7.52252 10.9642 7.67333 11.0357 7.80296C11.1073 7.93258 11.2225 8.0326 11.3609 8.0852L15.4859 9.63208L8.87732 16.7188Z" fill="url(#paint1_linear_99_1025)"/>
<defs>
<linearGradient id="paint0_linear_99_1025" x1="6.22945" y1="19.0001" x2="17.5395" y2="2.47972" gradientUnits="userSpaceOnUse">
<stop stop-color="#6B94FF"/>
<stop offset="1" stop-color="#8BB5FD"/>
</linearGradient>
<linearGradient id="paint1_linear_99_1025" x1="5.81578" y1="19.6398" x2="17.8086" y2="1.64449" gradientUnits="userSpaceOnUse">
<stop stop-color="#6B94FF"/>
<stop offset="1" stop-color="#8BB5FD"/>
</linearGradient>
</defs>
</svg>
