<svg width="21" height="20" viewBox="0 0 21 20" fill="none" xmlns="http://www.w3.org/2000/svg">
<path opacity="0.2" d="M19.083 10L13.458 15H7.20801L1.58301 10L7.20801 5H13.458L19.083 10Z" fill="url(#paint0_linear_99_1007)"/>
<path d="M7.62254 5.46879L2.5202 10L7.61941 14.5313C7.68097 14.5858 7.73119 14.6518 7.76722 14.7257C7.80324 14.7996 7.82436 14.8799 7.82936 14.9619C7.83437 15.044 7.82317 15.1262 7.79639 15.2039C7.76962 15.2816 7.7278 15.3533 7.67332 15.4149C7.61884 15.4764 7.55277 15.5267 7.47888 15.5627C7.405 15.5987 7.32474 15.6198 7.24269 15.6248C7.16064 15.6298 7.07841 15.6186 7.00069 15.5919C6.92297 15.5651 6.85128 15.5233 6.78973 15.4688L1.16473 10.4688C1.09822 10.4101 1.04496 10.338 1.00848 10.2572C0.971993 10.1764 0.953125 10.0887 0.953125 10C0.953125 9.91137 0.971993 9.82371 1.00848 9.74289C1.04496 9.66207 1.09822 9.58994 1.16473 9.53129L6.78973 4.53129C6.85128 4.47661 6.92301 4.43458 7.00081 4.40762C7.0786 4.38066 7.16095 4.36928 7.24314 4.37414C7.32534 4.379 7.40577 4.4 7.47985 4.43595C7.55393 4.47189 7.6202 4.52208 7.67488 4.58363C7.72957 4.64519 7.77159 4.71692 7.79855 4.79471C7.82552 4.87251 7.83689 4.95486 7.83203 5.03705C7.82717 5.11925 7.80617 5.19968 7.77022 5.27376C7.73428 5.34784 7.68409 5.41411 7.62254 5.46879ZM19.4975 9.53129L13.8725 4.53129C13.7482 4.42127 13.5853 4.36514 13.4196 4.37525C13.2539 4.38535 13.099 4.46088 12.9889 4.5852C12.8789 4.70952 12.8228 4.87245 12.8329 5.03816C12.843 5.20386 12.9185 5.35877 13.0429 5.46879L18.1452 10L13.046 14.5313C12.9844 14.5858 12.9342 14.6518 12.8982 14.7257C12.8621 14.7996 12.841 14.8799 12.836 14.9619C12.831 15.044 12.8422 15.1262 12.869 15.2039C12.8958 15.2816 12.9376 15.3533 12.9921 15.4149C13.0465 15.4764 13.1126 15.5267 13.1865 15.5627C13.2604 15.5987 13.3407 15.6198 13.4227 15.6248C13.5048 15.6298 13.587 15.6186 13.6647 15.5919C13.7424 15.5651 13.8141 15.5233 13.8757 15.4688L19.5007 10.4688C19.5672 10.4101 19.6204 10.338 19.6569 10.2572C19.6934 10.1764 19.7123 10.0887 19.7123 10C19.7123 9.91137 19.6934 9.82371 19.6569 9.74289C19.6204 9.66207 19.5672 9.58994 19.5007 9.53129H19.4975Z" fill="url(#paint1_linear_99_1007)"/>
<defs>
<linearGradient id="paint0_linear_99_1007" x1="4.58803" y1="15.1429" x2="8.1817" y2="2.28233" gradientUnits="userSpaceOnUse">
<stop stop-color="#6B94FF"/>
<stop offset="1" stop-color="#8BB5FD"/>
</linearGradient>
<linearGradient id="paint1_linear_99_1007" x1="4.17436" y1="15.7868" x2="8.38841" y2="1.421" gradientUnits="userSpaceOnUse">
<stop stop-color="#6B94FF"/>
<stop offset="1" stop-color="#8BB5FD"/>
</linearGradient>
</defs>
</svg>
