<svg width="21" height="20" viewBox="0 0 21 20" fill="none" xmlns="http://www.w3.org/2000/svg">
<path opacity="0.2" d="M5.95796 12.5L7.83296 14.375C7.83296 14.375 7.20796 16.875 3.45796 16.875C3.45796 13.125 5.95796 12.5 5.95796 12.5ZM10.958 5.625H6.14156C5.97602 5.62508 5.81727 5.69082 5.70015 5.80781L3.01656 8.49141C2.93462 8.57352 2.87716 8.67682 2.85059 8.78974C2.82403 8.90265 2.82941 9.02074 2.86614 9.13077C2.90288 9.2408 2.9695 9.33844 3.05857 9.41275C3.14764 9.48707 3.25563 9.53513 3.37046 9.55156L6.58296 10L10.958 5.625ZM10.333 13.75L10.7814 16.9625C10.7978 17.0773 10.8459 17.1853 10.9202 17.2744C10.9945 17.3635 11.0922 17.4301 11.2022 17.4668C11.3122 17.5036 11.4303 17.5089 11.5432 17.4824C11.6561 17.4558 11.7594 17.3983 11.8416 17.3164L14.5252 14.6328C14.6421 14.5157 14.7079 14.3569 14.708 14.1914V9.375L10.333 13.75Z" fill="url(#paint0_linear_99_1013)"/>
<path d="M8.43966 14.5266C8.40919 14.6477 7.64748 17.5 3.45763 17.5C3.29187 17.5 3.1329 17.4341 3.01569 17.3169C2.89848 17.1997 2.83263 17.0408 2.83263 16.875C2.83263 12.6852 5.68498 11.9234 5.80607 11.893C5.96696 11.8528 6.13723 11.8781 6.27942 11.9635C6.42161 12.0488 6.52408 12.1872 6.56427 12.348C6.60447 12.5089 6.57911 12.6792 6.49376 12.8214C6.40842 12.9636 6.27009 13.066 6.1092 13.1062C6.03888 13.1258 4.35763 13.6172 4.11232 16.2203C6.71545 15.975 7.20763 14.2969 7.22795 14.2187C7.26939 14.0581 7.37296 13.9204 7.51588 13.8361C7.65881 13.7518 7.82937 13.7277 7.99005 13.7691C8.15074 13.8106 8.28838 13.9142 8.3727 14.0571C8.45702 14.2 8.4811 14.3706 8.43966 14.5312V14.5266ZM15.7053 9.26093L15.3326 9.63359V14.1906C15.3336 14.3554 15.3017 14.5187 15.2389 14.6711C15.1762 14.8235 15.0837 14.9618 14.967 15.0781L12.2858 17.7578C12.1701 17.8743 12.0326 17.9667 11.8811 18.0297C11.7296 18.0927 11.567 18.1251 11.4029 18.125C11.2675 18.125 11.133 18.1031 11.0045 18.0602C10.784 17.9872 10.5882 17.854 10.4394 17.6756C10.2905 17.4973 10.1946 17.2808 10.1623 17.0508L9.74279 14.0437L6.28888 10.5898L3.28341 10.1703C3.05306 10.138 2.83628 10.0421 2.65748 9.89327C2.47868 9.74448 2.34494 9.54875 2.27131 9.3281C2.19768 9.10745 2.18707 8.87063 2.24069 8.64428C2.29431 8.41794 2.41003 8.21104 2.57482 8.04687L5.25451 5.36562C5.37082 5.24889 5.50918 5.15645 5.66154 5.09368C5.8139 5.03091 5.97723 4.99907 6.14201 5H10.699L11.0717 4.62734C13.1561 2.54375 15.6678 2.4539 16.6506 2.5125C16.9553 2.53102 17.2428 2.66043 17.4587 2.87631C17.6745 3.0922 17.804 3.37963 17.8225 3.68437C17.8795 4.66484 17.7897 7.17656 15.7061 9.26093H15.7053ZM3.45763 8.93281L6.35998 9.3375L9.44904 6.25H6.14201L3.45763 8.93281ZM7.46701 10L10.3326 12.8656L14.8209 8.37734C15.4258 7.77656 15.895 7.05326 16.1972 6.25606C16.4993 5.45886 16.6272 4.60623 16.5725 3.75546C15.7222 3.70268 14.8704 3.83198 14.074 4.1347C13.2776 4.43743 12.555 4.90662 11.9545 5.51093L7.46701 10ZM14.0826 10.8836L10.9944 13.9719L11.4006 16.875L14.0826 14.1906V10.8836Z" fill="url(#paint1_linear_99_1013)"/>
<defs>
<linearGradient id="paint0_linear_99_1013" x1="4.87293" y1="17.6687" x2="11.3699" y2="4.38272" gradientUnits="userSpaceOnUse">
<stop stop-color="#6B94FF"/>
<stop offset="1" stop-color="#8BB5FD"/>
</linearGradient>
<linearGradient id="paint1_linear_99_1013" x1="4.89034" y1="18.3483" x2="13.4383" y2="0.865295" gradientUnits="userSpaceOnUse">
<stop stop-color="#6B94FF"/>
<stop offset="1" stop-color="#8BB5FD"/>
</linearGradient>
</defs>
</svg>
